<svg width="240" height="240" viewBox="0 0 240 240" fill="none" xmlns="http://www.w3.org/2000/svg">
<rect width="240" height="240" fill="white"/>
<rect width="240" height="240" fill="url(#paint0_linear_2_2)"/>
<rect width="240" height="240" fill="url(#paint1_linear_2_2)" fill-opacity="0.2"/>
<rect x="121" y="125" width="101" height="101" rx="30" fill="#55E10C"/>
<rect x="18" y="125" width="101" height="101" rx="30" fill="#A0F305"/>
<rect x="121" y="14" width="101" height="101" rx="30" fill="#40DB0C"/>
<rect x="18" y="14" width="101" height="101" rx="30" fill="#03BA1C"/>
<path d="M172.498 216.38C165.751 216.38 159.848 215.383 154.788 213.39C149.728 211.32 145.779 208.445 142.943 204.765C140.106 201.008 138.688 196.638 138.688 191.655C138.688 186.672 140.068 182.455 142.828 179.005C145.664 175.478 149.613 172.833 154.673 171.07C159.733 169.23 165.674 168.31 172.498 168.31C179.398 168.31 185.378 169.23 190.438 171.07C195.574 172.833 199.523 175.478 202.283 179.005C205.12 182.455 206.538 186.672 206.538 191.655C206.538 196.638 205.12 201.008 202.283 204.765C199.446 208.445 195.459 211.32 190.323 213.39C185.263 215.383 179.321 216.38 172.498 216.38ZM172.498 202.695C177.174 202.695 180.854 201.66 183.538 199.59C186.298 197.52 187.678 194.683 187.678 191.08C187.678 187.477 186.298 184.678 183.538 182.685C180.854 180.615 177.174 179.58 172.498 179.58C167.898 179.58 164.256 180.615 161.573 182.685C158.889 184.678 157.548 187.477 157.548 191.08C157.548 194.683 158.889 197.52 161.573 199.59C164.256 201.66 167.898 202.695 172.498 202.695ZM172.498 177.74C166.288 177.74 160.844 176.897 156.168 175.21C151.568 173.523 147.964 171.07 145.358 167.85C142.828 164.553 141.563 160.643 141.563 156.12C141.563 151.367 142.866 147.303 145.473 143.93C148.079 140.48 151.721 137.835 156.398 135.995C161.074 134.078 166.441 133.12 172.498 133.12C178.708 133.12 184.113 134.078 188.713 135.995C193.389 137.835 197.031 140.48 199.638 143.93C202.321 147.303 203.663 151.367 203.663 156.12C203.663 160.643 202.36 164.553 199.753 167.85C197.223 171.07 193.619 173.523 188.943 175.21C184.266 176.897 178.784 177.74 172.498 177.74ZM172.498 166.815C176.408 166.815 179.474 165.933 181.698 164.17C183.998 162.407 185.148 159.992 185.148 156.925C185.148 153.705 183.959 151.213 181.583 149.45C179.283 147.687 176.254 146.805 172.498 146.805C168.818 146.805 165.828 147.687 163.528 149.45C161.228 151.213 160.078 153.705 160.078 156.925C160.078 159.992 161.189 162.407 163.413 164.17C165.636 165.933 168.664 166.815 172.498 166.815Z" fill="white"/>
<path d="M33.4214 199.095V186.56L71.3714 135.5H90.9214L53.7764 186.56L44.6914 183.915H108.056V199.095H33.4214ZM76.7764 216V199.095L77.3514 183.915V168.85H94.9465V216H76.7764Z" fill="white"/>
<path d="M172.459 105.38C165.866 105.38 159.962 103.77 154.749 100.55C149.536 97.2533 145.434 92.5 142.444 86.29C139.454 80.08 137.959 72.5667 137.959 63.75C137.959 54.9333 139.454 47.42 142.444 41.21C145.434 35 149.536 30.285 154.749 27.065C159.962 23.7683 165.866 22.12 172.459 22.12C179.129 22.12 185.032 23.7683 190.169 27.065C195.382 30.285 199.484 35 202.474 41.21C205.464 47.42 206.959 54.9333 206.959 63.75C206.959 72.5667 205.464 80.08 202.474 86.29C199.484 92.5 195.382 97.2533 190.169 100.55C185.032 103.77 179.129 105.38 172.459 105.38ZM172.459 89.625C175.602 89.625 178.324 88.7433 180.624 86.98C183.001 85.2167 184.841 82.4183 186.144 78.585C187.524 74.7517 188.214 69.8067 188.214 63.75C188.214 57.6933 187.524 52.7483 186.144 48.915C184.841 45.0817 183.001 42.2833 180.624 40.52C178.324 38.7567 175.602 37.875 172.459 37.875C169.392 37.875 166.671 38.7567 164.294 40.52C161.994 42.2833 160.154 45.0817 158.774 48.915C157.471 52.7483 156.819 57.6933 156.819 63.75C156.819 69.8067 157.471 74.7517 158.774 78.585C160.154 82.4183 161.994 85.2167 164.294 86.98C166.671 88.7433 169.392 89.625 172.459 89.625Z" fill="white"/>
<path d="M39.879 103V90.925L70.929 61.6C73.3823 59.3767 75.184 57.3833 76.334 55.62C77.484 53.8567 78.2507 52.2467 78.634 50.79C79.094 49.3333 79.324 47.9917 79.324 46.765C79.324 43.545 78.2123 41.0917 75.989 39.405C73.8423 37.6417 70.6607 36.76 66.444 36.76C63.0707 36.76 59.9273 37.4117 57.014 38.715C54.1773 40.0183 51.7623 42.05 49.769 44.81L36.199 36.07C39.2657 31.47 43.559 27.8283 49.079 25.145C54.599 22.4617 60.9623 21.12 68.169 21.12C74.149 21.12 79.3623 22.1167 83.809 24.11C88.3323 26.0267 91.8207 28.7483 94.274 32.275C96.804 35.8017 98.069 40.0183 98.069 44.925C98.069 47.5317 97.724 50.1383 97.034 52.745C96.4207 55.275 95.1173 57.9583 93.124 60.795C91.2073 63.6317 88.3707 66.8133 84.614 70.34L58.854 94.605L55.289 87.82H100.714V103H39.879Z" fill="white"/>
<defs>
<linearGradient id="paint0_linear_2_2" x1="240" y1="223" x2="28" y2="17" gradientUnits="userSpaceOnUse">
<stop stop-color="#06BF1B"/>
<stop offset="0.773958" stop-color="#BDF903"/>
</linearGradient>
<linearGradient id="paint1_linear_2_2" x1="268.5" y1="61" x2="12" y2="213" gradientUnits="userSpaceOnUse">
<stop/>
<stop offset="1" stop-color="#308437"/>
</linearGradient>
</defs>
</svg>
